<svg xmlns="http://www.w3.org/2000/svg" xmlns:xlink="http://www.w3.org/1999/xlink" width="40" zoomAndPan="magnify" viewBox="0 0 30 30.000001" height="40" preserveAspectRatio="xMidYMid meet" version="1.0"><path fill="#ffffff" d="M 17.847656 14.316406 L 26.980469 5.183594 C 27.820312 4.34375 27.824219 2.976562 26.980469 2.136719 C 26.144531 1.296875 24.777344 1.296875 23.9375 2.136719 L 14.800781 11.273438 L 5.667969 2.136719 C 4.824219 1.296875 3.460938 1.296875 2.621094 2.136719 C 1.78125 2.976562 1.78125 4.339844 2.621094 5.183594 L 11.753906 14.316406 L 2.621094 23.453125 C 1.78125 24.292969 1.777344 25.65625 2.621094 26.5 C 3.460938 27.335938 4.824219 27.339844 5.667969 26.496094 L 14.800781 17.363281 L 23.9375 26.496094 C 24.777344 27.335938 26.140625 27.339844 26.980469 26.5 C 27.820312 25.660156 27.824219 24.292969 26.980469 23.453125 Z M 17.847656 14.316406 " fill-opacity="1" fill-rule="evenodd"/></svg>